# xmcd CD database file
#
# Track frame offsets:
#	150
#	31692
#	60720
#	85170
#	118775
#	158847
#
# Disc length: 2519 seconds
#
# Revision: 0
# Processed by: cddbd v1.4PL0 Copyright (c) Steve Scherf et al.
# Submitted via: CDex 1.50
#
DISCID=4109d506
DTITLE=Philipp van Endert - Alex Gunia - nobody calls me chicken
DYEAR=1992
DGENRE=Jazz
TTITLE0=head over heels
TTITLE1=brighter days
TTITLE2=milestones
TTITLE3=ille pille
TTITLE4=my heart
TTITLE5=secret of my dreams
EXTD=YEAR: 1992
EXTT0=
EXTT1=
EXTT2=
EXTT3=
EXTT4=
EXTT5=
PLAYORDER=
